<?xml version="1.0" encoding="UTF-8"?>
<!DOCTYPE svg PUBLIC "-//W3C//DTD SVG 1.1//EN" "http://www.w3.org/Graphics/SVG/1.1/DTD/svg11.dtd">
<!-- Creator: CorelDRAW 2021 (64 Bit) -->
<svg xmlns="http://www.w3.org/2000/svg" xml:space="preserve" width="203.2mm" height="169.333mm" version="1.1" style="shape-rendering:geometricPrecision; text-rendering:geometricPrecision; image-rendering:optimizeQuality; fill-rule:evenodd; clip-rule:evenodd"
viewBox="0 0 20319.98 16933.32"
 xmlns:xlink="http://www.w3.org/1999/xlink"
 xmlns:xodm="http://www.corel.com/coreldraw/odm/2003">
 <defs>
  <style type="text/css">
   <![CDATA[
    .fil3 {fill:#F2A007}
    .fil1 {fill:#F2A007;fill-rule:nonzero}
    .fil2 {fill:#F2A007;fill-rule:nonzero}
    .fil0 {fill:white;fill-rule:nonzero}
   ]]>
  </style>
 </defs>
 <g id="Camada_x0020_1">
  <metadata id="CorelCorpID_0Corel-Layer"/>
  <g id="_2982984628976">
   <g>
    <path class="fil0" d="M7260.26 8659c0,84.95 27,145.36 80.81,181.24 53.91,35.88 129.89,53.9 227.85,53.9 48.98,0 99.54,-4.13 151.78,-12.31 52.23,-8.09 97.96,-18.73 137.18,-31.83 29.37,35.96 54.7,75.98 75.89,120.03 21.28,44.06 31.83,97.17 31.83,159.17 0,124.08 -46.51,225.29 -139.55,303.73 -93.13,78.36 -257.13,117.58 -492.27,117.58 -287.38,0 -508.54,-65.34 -663.58,-196.02 -155.12,-130.58 -232.68,-342.86 -232.68,-636.75l0 -2096.33c35.88,-9.85 87.32,-20.4 154.24,-31.84 67.01,-11.43 137.98,-17.14 213.07,-17.14 143.61,0 255.46,25.32 335.48,75.89 80.03,50.65 119.95,157.58 119.95,320.88l0 313.41 641.68 0c19.61,35.96 38.34,80.81 56.37,134.72 17.94,53.9 26.9,113.52 26.9,178.77 0,114.32 -25.32,196.72 -75.88,247.37 -50.66,50.65 -118.37,75.89 -203.32,75.89l-445.75 0 0 739.64z"/>
    <path class="fil0" d="M9239.28 9472.1c-35.93,6.54 -88.98,15.51 -159.21,26.96 -70.18,11.46 -141.22,17.12 -213.07,17.12 -71.86,0 -136.36,-4.85 -193.46,-14.69 -57.16,-9.78 -105.35,-29.39 -144.52,-58.78 -39.17,-29.39 -69.37,-69.36 -90.6,-119.99 -21.23,-50.62 -31.87,-116.74 -31.87,-198.37l0 -1993.56c35.92,-6.54 88.97,-15.57 159.21,-26.96 70.23,-11.46 141.22,-17.13 213.07,-17.13 71.85,0 136.36,4.86 193.46,14.7 57.16,9.77 105.35,29.39 144.51,58.78 39.17,29.38 69.43,69.36 90.6,119.98 21.23,50.62 31.88,116.75 31.88,198.38l0 1993.56z"/>
    <path class="fil1" d="M8367.38 6435.22c0,-124.1 41.65,-228.58 124.9,-313.51 83.25,-84.87 193.46,-127.33 330.63,-127.33 137.17,0 247.38,42.46 330.63,127.33 83.25,84.93 124.91,189.41 124.91,313.51 0,124.09 -41.66,228.58 -124.91,313.45 -83.25,84.92 -193.46,127.39 -330.63,127.39 -137.17,0 -247.38,-42.47 -330.63,-127.39 -83.25,-84.87 -124.9,-189.36 -124.9,-313.45z"/>
    <path class="fil0" d="M10600.91 8659c0,84.95 26.99,145.36 80.81,181.24 53.91,35.88 129.88,53.9 227.85,53.9 48.98,0 99.54,-4.13 151.78,-12.31 52.23,-8.09 97.96,-18.73 137.18,-31.83 29.37,35.96 54.7,75.98 75.89,120.03 21.28,44.06 31.83,97.17 31.83,159.17 0,124.08 -46.52,225.29 -139.55,303.73 -93.13,78.36 -257.13,117.58 -492.28,117.58 -287.38,0 -508.63,-65.34 -663.66,-196.02 -155.12,-130.58 -232.68,-342.86 -232.68,-636.75l0 -2096.33c35.88,-9.85 87.32,-20.4 154.24,-31.84 67.01,-11.43 137.97,-17.14 213.07,-17.14 143.69,0 255.55,25.32 335.57,75.89 80.02,50.65 119.95,157.58 119.95,320.88l0 313.41 641.68 0c19.61,35.96 38.34,80.81 56.36,134.72 17.94,53.9 26.91,113.52 26.91,178.77 0,114.32 -25.32,196.72 -75.89,247.37 -50.65,50.65 -118.36,75.89 -203.31,75.89l-445.75 0 0 739.64z"/>
    <path class="fil0" d="M12746.4 8947.96c55.49,0 116.78,-5.72 183.7,-17.15 66.92,-11.43 116.69,-26.91 149.41,-46.52l0 -391.84 -352.72 29.37c-91.46,6.59 -166.55,26.2 -225.3,58.83 -58.74,32.62 -88.2,81.6 -88.2,146.94 0,65.34 25.33,118.36 75.98,159.17 50.56,40.8 136.3,61.2 257.13,61.2zm-39.22 -1924.94c176.4,0 337.15,18.02 482.51,53.9 145.27,35.88 269.26,90.58 372.15,164.09 102.89,73.43 182.03,166.55 237.61,279.2 55.49,112.65 83.19,245.7 83.19,399.15l0 1097.19c0,84.95 -23.66,154.33 -70.97,208.15 -47.4,53.9 -103.68,100.42 -169.01,139.64 -212.2,127.34 -510.92,191 -896.26,191 -173.06,0 -328.97,-16.27 -467.74,-48.98 -138.85,-32.62 -258.01,-81.6 -357.55,-146.94 -99.63,-65.25 -176.4,-148.53 -230.22,-249.83 -53.91,-101.22 -80.82,-218.7 -80.82,-352.63 0,-225.29 66.92,-398.35 200.77,-519.18 133.92,-120.83 341.28,-195.92 622.06,-225.3l641.68 -68.59 0 -34.29c0,-94.71 -41.68,-162.42 -124.87,-203.31 -83.28,-40.81 -203.31,-61.21 -360.01,-61.21 -124.08,0 -244.91,13.11 -362.48,39.22 -117.57,26.12 -223.71,58.75 -318.42,97.97 -42.39,-29.38 -78.35,-74.31 -107.73,-134.72 -29.37,-60.42 -44.05,-123.29 -44.05,-188.54 0,-84.95 20.4,-152.66 61.2,-203.31 40.8,-50.65 103.68,-93.92 188.54,-129.8 94.71,-35.88 206.56,-62.08 335.57,-78.35 129,-16.36 250.62,-24.53 364.85,-24.53z"/>
   </g>
   <g>
    <path class="fil2" d="M4576.07 10349.59l109.04 0 141.75 436.7 138.24 -436.7 88.99 0 138.33 436.7 141.75 -436.7 107.99 0 -190.65 577.48 -109.83 0 -131.73 -422.8 -133.32 422.8 -110.01 0 -190.55 -577.48zm2352.14 588.83l0 0.52c-88.03,0 -159.96,-29.19 -216.33,-87.4 -56.19,-58.13 -84.24,-129.71 -84.24,-215.01 0,-84.16 28.05,-154.86 84.24,-211.84 56.37,-57.42 128.3,-86.09 216.33,-86.09 87.58,0 159.61,28.67 216.24,86.09 56.72,56.98 85.12,127.68 85.12,211.84 0,84.95 -28.4,156.62 -85.12,215.01 -56.63,57.86 -128.66,86.88 -216.24,86.88zm0 -505.82l0 0.53c-59.09,0 -106.49,19.35 -142.28,58.21 -35.88,38.79 -53.73,87.68 -53.73,146.77 0,59.89 17.85,109.48 53.73,148.7 35.79,39.4 83.19,59.1 142.28,59.1 59.01,0 106.4,-19.7 142.28,-59.1 35.79,-39.22 53.64,-88.99 53.64,-149.23 0,-59.09 -17.85,-107.98 -53.64,-146.67 -35.88,-38.87 -83.27,-58.31 -142.28,-58.31zm1660.69 51.36c48.72,-93.92 123.12,-140.97 222.92,-140.97l0 111.51 -13.89 0c-26.38,0 -51.18,3.96 -74.75,11.96 -23.04,7.91 -45.2,20.84 -66.04,38.87 -20.57,17.5 -37.19,42.91 -49.77,76.06 -12.4,32.45 -18.47,70.97 -18.47,115.46l0 230.22 -102.88 0 0 -577.48 102.88 0 0 134.37zm1786.98 137.62l213.95 305.49 -124.26 0 -155.73 -219.84 -158.2 219.84 -90.49 0 0 -790.38 102.89 0 0 608.88 283.06 -395.98 122.41 0 -193.63 271.99zm1686.81 316.84l0 0.52c-88.03,0 -159.96,-29.19 -216.33,-87.4 -56.19,-58.13 -84.24,-129.71 -84.24,-215.01 0,-84.16 28.05,-154.86 84.24,-211.84 56.37,-57.42 128.3,-86.09 216.33,-86.09 87.58,0 159.6,28.67 216.24,86.09 56.71,56.98 85.12,127.68 85.12,211.84 0,84.95 -28.41,156.62 -85.12,215.01 -56.64,57.86 -128.66,86.88 -216.24,86.88zm0 -505.82l0 0.53c-59.1,0 -106.49,19.35 -142.28,58.21 -35.88,38.79 -53.73,87.68 -53.73,146.77 0,59.89 17.85,109.48 53.73,148.7 35.79,39.4 83.18,59.1 142.28,59.1 59,0 106.4,-19.7 142.28,-59.1 35.79,-39.22 53.64,-88.99 53.64,-149.23 0,-59.09 -17.85,-107.98 -53.64,-146.67 -35.88,-38.87 -83.28,-58.31 -142.28,-58.31zm1991.95 -83.01l102.01 0.53 0 577.48 -102.36 0 0 -99.02c-61.12,72.73 -133.75,108.87 -218,109.05 -65.25,-0.18 -117.83,-21.9 -157.58,-65.78 -39.92,-43.79 -59.8,-102.71 -59.8,-176.58l0 -345.15 102.1 0 0 323.78c0,56.02 13.54,98.32 40.71,126.81 27.17,28.93 64.55,43.35 111.95,43.35 52.06,0 95.23,-16.44 129.35,-49.24 34.47,-32.98 51.62,-73.7 51.62,-122.41l0 -322.82zm1533.01 92.6l0 331.7c0,25.15 6.51,43.97 19.43,56.72 12.49,12.22 29.99,18.38 52.24,18.38 11.87,0 22.78,-1.24 32.27,-3.43 10.38,-2.73 17.85,-5.28 22.43,-7.48l8.53 -3.08 21.37 78.18c-26.21,16.62 -62.88,25.06 -110.01,25.76 -46.44,0 -82.75,-12.04 -108.87,-36.31 -26.47,-24.45 -39.92,-58.75 -39.92,-102.89l0 -357.55 -64.55 0 0 -29.37 162.16 -177.64 4.92 0 0 114.41 136.92 0 0 92.6 -136.92 0z"/>
    <path class="fil3" d="M6017.36 10537.86c31.39,0 56.8,25.51 56.8,56.81 0,31.39 -25.41,56.81 -56.8,56.81 -31.31,0 -56.81,-25.42 -56.81,-56.81 0,-31.3 25.5,-56.81 56.81,-56.81z"/>
    <path class="fil3" d="M7986.45 10537.86c31.39,0 56.8,25.51 56.8,56.81 0,31.39 -25.41,56.81 -56.8,56.81 -31.4,0 -56.81,-25.42 -56.81,-56.81 0,-31.3 25.41,-56.81 56.81,-56.81z"/>
    <path class="fil3" d="M9489.29 10537.86c31.4,0 56.81,25.51 56.81,56.81 0,31.39 -25.41,56.81 -56.81,56.81 -31.3,0 -56.8,-25.42 -56.8,-56.81 0,-31.3 25.5,-56.81 56.8,-56.81z"/>
    <path class="fil3" d="M11156.67 10537.86c31.39,0 56.81,25.51 56.81,56.81 0,31.39 -25.42,56.81 -56.81,56.81 -31.39,0 -56.81,-25.42 -56.81,-56.81 0,-31.3 25.42,-56.81 56.81,-56.81z"/>
    <path class="fil3" d="M13001.59 10537.86c31.31,0 56.72,25.51 56.72,56.81 0,31.39 -25.41,56.81 -56.72,56.81 -31.39,0 -56.8,-25.42 -56.8,-56.81 0,-31.3 25.41,-56.81 56.8,-56.81z"/>
    <path class="fil3" d="M14846.52 10537.86c31.3,0 56.8,25.51 56.8,56.81 0,31.39 -25.5,56.81 -56.8,56.81 -31.4,0 -56.81,-25.42 -56.81,-56.81 0,-31.3 25.41,-56.81 56.81,-56.81z"/>
   </g>
  </g>
 </g>
</svg>
