<?xml version="1.0" encoding="UTF-8"?>
<!DOCTYPE svg PUBLIC "-//W3C//DTD SVG 1.1//EN" "http://www.w3.org/Graphics/SVG/1.1/DTD/svg11.dtd">
<!-- Creator: CorelDRAW 2020 (64 Bit) -->
<svg xmlns="http://www.w3.org/2000/svg" xml:space="preserve" width="1000px" height="187px" version="1.1" shape-rendering="geometricPrecision" text-rendering="geometricPrecision" image-rendering="optimizeQuality" fill-rule="evenodd" clip-rule="evenodd"
viewBox="0 0 1000 187.27"
 xmlns:xlink="http://www.w3.org/1999/xlink"
 xmlns:xodm="http://www.corel.com/coreldraw/odm/2003">
 <g id="Camada_x0020_1">
  <metadata id="CorelCorpID_0Corel-Layer"/>
  <g id="_2258455208064">
   <path fill="white" fill-rule="nonzero" d="M74.76 34.46c0.25,0 0.5,0 0.76,0 3.55,0.25 6.84,-2.79 6.84,-6.59l0 -20.02c0,-3.54 -2.54,-6.33 -5.83,-6.84 -3.29,-0.51 -7.1,-1.01 -11.91,-1.01 -40.8,0 -48.66,31.67 -48.66,55.5l-6.84 0c-5.07,0 -9.12,4.05 -9.12,9.12l0 15.71c0,5.07 4.05,9.12 9.12,9.12l6.84 0 0 85.4c0,5.07 4.06,9.13 8.87,9.13l23.06 0c5.07,0 9.13,-4.06 9.13,-9.13l0 -85.4 16.22 0c5.06,0 9.12,-4.05 9.12,-9.12l0 -15.71c0,-5.07 -4.06,-9.12 -9.12,-9.12l-16.22 0c0,-13.44 4.05,-21.04 17.74,-21.04z"/>
   <path fill="white" fill-rule="nonzero" d="M144.96 75.01l0 -10.39c0,-5.07 -4.06,-9.12 -8.87,-9.12l-23.31 0c-4.82,0 -8.87,4.05 -8.87,9.12l0 110.23c0,5.07 4.05,9.13 8.87,9.13l23.31 0c4.81,0 8.87,-4.06 8.87,-9.13l0 -41.56c0,-20.27 3.55,-39.53 33.45,-37.5 3.8,0.25 7.35,-2.79 7.35,-6.84l0 -29.15c0,-4.3 -4.06,-7.35 -8.11,-6.59 -12.67,2.29 -25.09,9.89 -32.69,21.8z"/>
   <path fill="red" fill-rule="nonzero" d="M264.32 52.45c-36.74,0 -66.14,29.4 -66.14,67.41 0,39.79 28.64,67.16 72.22,67.16 21.54,0 39.28,-8.11 50.43,-20.53 2.54,-3.29 1.78,-8.11 -1.77,-10.39l-17.99 -10.64c-2.54,-1.52 -5.58,-1.27 -7.86,0.76 -4.81,4.05 -12.67,7.85 -22.81,7.85 -15.71,0 -28.13,-6.84 -32.43,-21.79l84.38 0c4.82,0 8.87,-4.06 8.87,-9.12 0.76,-47.9 -30.91,-70.71 -66.9,-70.71zm-26.1 54.99c3.8,-14.19 14.45,-22.04 27.62,-22.04 14.19,0 24.58,6.84 27.88,22.04l-55.5 0z"/>
   <path fill="red" fill-rule="nonzero" d="M410.56 52.45c-36.75,0 -66.14,29.4 -66.14,67.41 0,39.79 28.63,67.16 72.22,67.16 21.54,0 39.28,-8.11 50.43,-20.53 2.53,-3.29 1.77,-8.11 -1.77,-10.39l-18 -10.64c-2.53,-1.52 -5.57,-1.27 -7.85,0.76 -4.82,4.05 -12.67,7.85 -22.81,7.85 -15.71,0 -28.13,-6.84 -32.44,-21.79l84.39 0c4.82,0 8.87,-4.06 8.87,-9.12 0.76,-47.9 -30.92,-70.71 -66.9,-70.71zm-26.1 54.99c3.8,-14.19 14.44,-22.04 27.62,-22.04 14.19,0 24.58,6.84 27.88,22.04l-55.5 0z"/>
   <path fill="white" fill-rule="nonzero" d="M588.19 15.71l0 52.46c-7.35,-9.38 -18.75,-15.72 -36.24,-15.72 -39.79,0 -61.58,33.71 -61.58,67.41 0,33.45 21.79,67.16 61.58,67.16 17.49,0 28.89,-6.34 36.24,-15.72l0 5.83c0,3.8 3.04,6.85 6.84,6.85l25.34 0c5.07,0 9.13,-4.06 9.13,-9.13l0 -159.14c0,-5.07 -4.06,-9.12 -9.13,-9.12l-23.06 0c-5.07,0 -9.12,4.05 -9.12,9.12zm-28.64 131.52c-17.23,0 -27.62,-11.66 -27.62,-27.37 0,-15.96 10.39,-27.62 27.62,-27.62 15.46,0 27.37,10.39 27.37,27.62 0,16.98 -11.91,27.37 -27.37,27.37z"/>
   <path fill="white" fill-rule="nonzero" d="M718.71 52.45c-40.04,0 -68.93,29.15 -68.93,67.41 0,38.01 28.89,67.41 68.93,67.41 40.29,0 68.93,-29.4 68.93,-67.41 0,-38.26 -28.64,-67.41 -68.93,-67.41zm0 94.78c-16.48,0 -27.37,-12.42 -27.37,-27.37 0,-14.95 10.89,-27.62 27.37,-27.62 16.72,0 27.62,12.67 27.62,27.62 0,14.95 -10.9,27.37 -27.62,27.37z"/>
   <path fill="white" fill-rule="nonzero" d="M953.88 52.45c-17.49,0 -29.4,7.61 -36.75,17.24 -6.84,-10.65 -18.5,-17.24 -36.23,-17.24 -15.21,0 -25.35,5.58 -31.93,12.93l0 -3.04c0,-3.8 -3.05,-6.84 -6.59,-6.84l-25.34 0c-5.07,0 -9.13,4.05 -9.13,9.12l0 110.23c0,5.07 4.06,9.13 9.13,9.13l23.06 0c4.81,0 8.87,-4.06 8.87,-9.13l0 -64.62c0,-14.19 10.64,-17.48 17.23,-17.48 6.84,0 17.23,3.04 17.23,17.48l0 64.62c0,5.07 4.05,9.13 8.87,9.13l23.06 0c5.07,0 9.12,-4.06 9.12,-9.13l0 -64.62c0,-14.19 10.39,-17.48 17.23,-17.48 6.59,0 16.98,3.04 16.98,17.48l0 64.62c0,5.07 4.06,9.13 9.13,9.13l23.06 0c5.07,0 9.12,-4.06 9.12,-9.13l0 -75.77c0,-25.85 -14.44,-46.63 -46.12,-46.63z"/>
  </g>
 </g>
</svg>
